<svg xmlns="http://www.w3.org/2000/svg" width="1122.52" height="793.707"><defs><clipPath clipPathUnits="userSpaceOnUse" id="a"><path d="M0 0h841.89v595.28H0z"/></clipPath><clipPath clipPathUnits="userSpaceOnUse" id="b"><path d="M-135.258 391.814H896.589v-460.88H-135.258z"/></clipPath><clipPath clipPathUnits="userSpaceOnUse" id="c"><path d="M11.147 252.294h885.442v-321.36H11.147z"/></clipPath><clipPath clipPathUnits="userSpaceOnUse" id="d"><path d="M4.173 258.938h890.339V-68.23H4.172z"/></clipPath><clipPath clipPathUnits="userSpaceOnUse" id="e"><path d="M-2.8 265.583h895.235V-67.395H-2.801z"/></clipPath><clipPath clipPathUnits="userSpaceOnUse" id="f"><path d="M-9.774 272.228h900.13V-66.559H-9.774z"/></clipPath><clipPath clipPathUnits="userSpaceOnUse" id="g"><path d="M-16.748 278.872h905.026V-65.723H-16.748z"/></clipPath><clipPath clipPathUnits="userSpaceOnUse" id="h"><path d="M-23.72 285.516h909.919V-64.887h-909.92z"/></clipPath><clipPath clipPathUnits="userSpaceOnUse" id="i"><path d="M-30.693 292.159h914.815V-64.05H-30.693z"/></clipPath><clipPath clipPathUnits="userSpaceOnUse" id="j"><path d="M-37.666 298.807H882.04V-63.215H-37.665z"/></clipPath><clipPath clipPathUnits="userSpaceOnUse" id="k"><path d="M-44.637 305.45H879.96V-62.38H-44.637z"/></clipPath><clipPath clipPathUnits="userSpaceOnUse" id="l"><path d="M-51.61 312.09h929.493V-61.543H-51.61z"/></clipPath><clipPath clipPathUnits="userSpaceOnUse" id="m"><path d="M-58.581 318.733h934.383V-60.708H-58.581z"/></clipPath><clipPath clipPathUnits="userSpaceOnUse" id="n"><path d="M-65.553 325.377h939.275v-385.25H-65.553z"/></clipPath><clipPath clipPathUnits="userSpaceOnUse" id="o"><path d="M-72.524 332.021H871.64V-59.036H-72.524z"/></clipPath><clipPath clipPathUnits="userSpaceOnUse" id="p"><path d="M-79.496 338.664H869.56V-58.201H-79.496z"/></clipPath><clipPath clipPathUnits="userSpaceOnUse" id="q"><path d="M-86.466 345.308h953.944V-57.365H-86.466z"/></clipPath><clipPath clipPathUnits="userSpaceOnUse" id="r"><path d="M-93.437 351.951h958.833v-408.48H-93.437z"/></clipPath><clipPath clipPathUnits="userSpaceOnUse" id="s"><path d="M-100.408 358.595h963.72v-414.29h-963.72z"/></clipPath><clipPath clipPathUnits="userSpaceOnUse" id="t"><path d="M-107.378 365.239h968.607V-54.859h-968.607z"/></clipPath><clipPath clipPathUnits="userSpaceOnUse" id="u"><path d="M-114.349 371.883h973.495V-54.024h-973.495z"/></clipPath><clipPath clipPathUnits="userSpaceOnUse" id="v"><path d="M-121.318 378.526h978.38V-53.19h-978.38z"/></clipPath><clipPath clipPathUnits="userSpaceOnUse" id="w"><path d="M-128.289 385.17h983.268V-52.354h-983.268z"/></clipPath><clipPath clipPathUnits="userSpaceOnUse" id="x"><path d="M-135.258 391.814h988.153V-51.52h-988.153z"/></clipPath><clipPath clipPathUnits="userSpaceOnUse" id="y"><path d="M-61.529 193.875h944.145V6.165H-61.529z"/></clipPath><clipPath clipPathUnits="userSpaceOnUse" id="z"><path d="M-21.533 171.417h904.149V28.444H-21.533z"/></clipPath><clipPath clipPathUnits="userSpaceOnUse" id="A"><path d="M-23.437 165.494h905.161V35.837H-23.437z"/></clipPath><clipPath clipPathUnits="userSpaceOnUse" id="B"><path d="M-25.341 159.507H880.56V43.373H-25.341z"/></clipPath><clipPath clipPathUnits="userSpaceOnUse" id="C"><path d="M-27.246 153.562h906.643V50.694H-27.246z"/></clipPath><clipPath clipPathUnits="userSpaceOnUse" id="D"><path d="M-29.15 147.617h907.387V57.981H-29.15z"/></clipPath><clipPath clipPathUnits="userSpaceOnUse" id="E"><path d="M-31.055 141.683h908.133v-76.51H-31.055z"/></clipPath><clipPath clipPathUnits="userSpaceOnUse" id="F"><path d="M-32.959 135.792h908.88V62.011h-908.88z"/></clipPath><clipPath clipPathUnits="userSpaceOnUse" id="G"><path d="M-34.864 129.856h909.629V58.288h-909.63z"/></clipPath><clipPath clipPathUnits="userSpaceOnUse" id="H"><path d="M-36.768 123.964H873.61v-69.4H-36.77z"/></clipPath><clipPath clipPathUnits="userSpaceOnUse" id="I"><path d="M-38.673 118.01h911.131V50.84h-911.13z"/></clipPath><clipPath clipPathUnits="userSpaceOnUse" id="J"><path d="M-40.577 113.452h911.886V47.117H-40.577z"/></clipPath><clipPath clipPathUnits="userSpaceOnUse" id="K"><path d="M-42.482 120.371h912.643V43.395H-42.482z"/></clipPath><clipPath clipPathUnits="userSpaceOnUse" id="L"><path d="M-44.387 127.463h913.401V39.671h-913.4z"/></clipPath><clipPath clipPathUnits="userSpaceOnUse" id="M"><path d="M-46.29 134.595h914.16V35.947H-46.29z"/></clipPath><clipPath clipPathUnits="userSpaceOnUse" id="N"><path d="M-48.196 141.79H866.73V32.225H-48.196z"/></clipPath><clipPath clipPathUnits="userSpaceOnUse" id="O"><path d="M-50.1 149.183h915.69V28.501H-50.1z"/></clipPath><clipPath clipPathUnits="userSpaceOnUse" id="P"><path d="M-52.005 156.643h916.46V24.778h-916.46z"/></clipPath><clipPath clipPathUnits="userSpaceOnUse" id="Q"><path d="M-53.91 164.045h917.233V21.055H-53.91z"/></clipPath><clipPath clipPathUnits="userSpaceOnUse" id="R"><path d="M-55.814 171.396h918.008V17.332H-55.814z"/></clipPath><clipPath clipPathUnits="userSpaceOnUse" id="S"><path d="M-57.72 178.847h918.788V13.609H-57.719z"/></clipPath><clipPath clipPathUnits="userSpaceOnUse" id="T"><path d="M-59.624 186.369h919.57V9.887h-919.57z"/></clipPath><clipPath clipPathUnits="userSpaceOnUse" id="U"><path d="M-61.529 193.875h920.355V6.165H-61.529z"/></clipPath><clipPath clipPathUnits="userSpaceOnUse" id="V"><path d="M-116.423 299.165H887.47V9.927H-116.423z"/></clipPath><clipPath clipPathUnits="userSpaceOnUse" id="W"><path d="M-116.423 291.169H887.47V111.048H-116.423z"/></clipPath><clipPath clipPathUnits="userSpaceOnUse" id="X"><path d="M-112.474 278.077h998.759V112.243h-998.759z"/></clipPath><clipPath clipPathUnits="userSpaceOnUse" id="Y"><path d="M-108.521 265.016h993.348V113.053h-993.348z"/></clipPath><clipPath clipPathUnits="userSpaceOnUse" id="Z"><path d="M-104.566 252H883.37V113.372h-987.936z"/></clipPath><clipPath clipPathUnits="userSpaceOnUse" id="aa"><path d="M-100.644 239.024h982.556V113.211h-982.556z"/></clipPath><clipPath clipPathUnits="userSpaceOnUse" id="ab"><path d="M-96.732 226.102h977.186V111.866H-96.732z"/></clipPath><clipPath clipPathUnits="userSpaceOnUse" id="ac"><path d="M-92.824 213.304h971.821v-103.36H-92.824z"/></clipPath><clipPath clipPathUnits="userSpaceOnUse" id="ad"><path d="M-88.918 206.099h966.457v-95.906H-88.918z"/></clipPath><clipPath clipPathUnits="userSpaceOnUse" id="ae"><path d="M-85.013 211.853H876.08V108.516H-85.013z"/></clipPath><clipPath clipPathUnits="userSpaceOnUse" id="af"><path d="M-81.112 217.802h955.736V106.411H-81.112z"/></clipPath><clipPath clipPathUnits="userSpaceOnUse" id="ag"><path d="M-77.19 223.919h950.356V103.934H-77.19z"/></clipPath><clipPath clipPathUnits="userSpaceOnUse" id="ah"><path d="M-73.314 230.189h945.023V100.945H-73.314z"/></clipPath><clipPath clipPathUnits="userSpaceOnUse" id="ai"><path d="M-69.418 236.604H870.25V97.306H-69.418z"/></clipPath><clipPath clipPathUnits="userSpaceOnUse" id="aj"><path d="M-65.522 243.149h934.315V92.662H-65.523z"/></clipPath><clipPath clipPathUnits="userSpaceOnUse" id="ak"><path d="M-61.628 249.901h928.964V87H-61.628z"/></clipPath><clipPath clipPathUnits="userSpaceOnUse" id="al"><path d="M-57.736 256.672h923.614V79.702H-57.736z"/></clipPath><clipPath clipPathUnits="userSpaceOnUse" id="am"><path d="M-53.844 263.546H864.42v-192.9H-53.844z"/></clipPath><clipPath clipPathUnits="userSpaceOnUse" id="an"><path d="M-49.953 270.516h912.915V59.889H-49.953z"/></clipPath><clipPath clipPathUnits="userSpaceOnUse" id="ao"><path d="M-46.062 277.57h907.567V48.096H-46.062z"/></clipPath><clipPath clipPathUnits="userSpaceOnUse" id="ap"><path d="M-42.17 284.738h902.217V35.602H-42.171z"/></clipPath><clipPath clipPathUnits="userSpaceOnUse" id="aq"><path d="M-38.28 291.925h896.87V22.884H-38.28z"/></clipPath><clipPath clipPathUnits="userSpaceOnUse" id="ar"><path d="M-34.39 299.165h891.522V9.927H-34.391z"/></clipPath></defs><g clip-path="url(#a)" transform="matrix(1.33333 0 0 -1.33333 0 793.707)"><g clip-path="url(#b)"><g clip-path="url(#c)" opacity=".5"><path d="M11.942-69.066l-.795.422c.308.58 31.306 58.737 73.324 111.9 24.693 31.24 48.307 54.675 70.188 69.653 27.432 18.775 52.222 24.253 73.679 16.277 48.473-18.017 95.756-38.954 137.473-57.428C455.453 32.063 526.258.704 569.56 11.787c93.76 23.984 324.097 238.345 326.413 240.507l.615-.658c-.58-.541-58.722-54.744-127.718-111.218C705.167 88.276 618.916 23.482 569.783 10.913c-6.05-1.546-12.63-2.275-19.71-2.275-43.944-.003-107.284 28.048-184.627 62.297-41.705 18.468-88.975 39.4-137.422 57.407-21.168 7.869-45.68 2.425-72.856-16.177-21.806-14.925-45.354-38.297-69.99-69.466-41.97-53.1-72.928-111.185-73.236-111.765" fill="#8ab7cf"/></g><g clip-path="url(#d)" opacity=".495"><path d="M4.978-68.23l-.805.403c.297.591 30.129 59.72 71.992 113.652 24.603 31.694 48.49 55.424 70.995 70.532 28.21 18.934 54.334 24.316 77.645 15.993 48.59-17.348 94.925-37.216 139.735-56.43 87.929-37.704 163.864-70.27 208.617-60.64C622.82 25.964 707.369 91.633 769.55 144.843c67.404 57.676 123.766 113.538 124.327 114.096l.635-.64c-.561-.556-56.948-56.442-124.377-114.14-62.261-53.276-146.941-119.035-196.79-129.76-45.024-9.682-121.087 22.93-209.16 60.693-44.797 19.21-91.12 39.072-139.683 56.41-23.03 8.223-48.88 2.873-76.84-15.892-22.426-15.054-46.242-38.718-70.785-70.336C35.066-8.59 5.274-67.64 4.977-68.23" fill="#89b5cc"/></g><g clip-path="url(#e)" opacity=".49"><path d="M-1.987-67.394l-.813.385c.284.6 28.94 60.689 70.646 115.387 24.509 32.144 48.666 56.17 71.8 71.412 28.987 19.096 56.45 24.387 81.627 15.727 48.43-16.661 95.68-36.28 141.373-55.252 90.039-37.387 167.795-69.67 214.107-61.492 50.32 8.893 133.283 75.513 194.022 129.833 65.842 58.886 120.462 116.402 121.006 116.977l.654-.62c-.545-.574-55.191-58.118-121.061-117.029C710.55 93.536 627.438 26.816 576.909 17.886c-4.95-.875-10.263-1.29-15.9-1.292-47.37-.003-118.125 29.38-198.708 62.84-45.681 18.966-92.916 38.578-141.321 55.231-24.9 8.566-52.096 3.306-80.84-15.628-23.048-15.186-47.131-39.142-71.578-71.205C26.912-6.792-1.703-66.795-1.988-67.395" fill="#88b3c9"/></g><g clip-path="url(#f)" opacity=".486"><path d="M-8.952-66.559l-.822.367c.273.611 27.745 61.647 69.287 117.103 24.413 32.591 48.84 56.912 72.603 72.287 29.768 19.262 58.575 24.472 85.624 15.482 48.082-15.976 96.112-35.285 142.56-53.959 92.348-37.124 172.1-69.179 220.049-62.455 50.948 7.15 132.328 74.714 191.626 130.135 64.287 60.083 117.183 119.235 117.71 119.826l.672-.599c-.528-.59-53.447-59.769-117.763-119.88-59.394-55.512-140.94-123.19-192.12-130.373-4.362-.612-8.99-.906-13.858-.906-48.898-.003-122.555 29.611-206.65 63.417-46.437 18.668-94.455 37.972-142.51 53.941-26.774 8.895-55.323 3.721-84.851-15.385-23.673-15.317-48.023-39.565-72.371-72.07C18.75-5.005-8.68-65.95-8.952-66.558" fill="#87b0c7"/></g><g clip-path="url(#g)" opacity=".481"><path d="M-15.918-65.723l-.83.35c.262.62 26.542 62.59 67.916 118.797 24.315 33.034 49.012 57.648 73.405 73.161 30.55 19.43 60.709 24.563 89.636 15.26 47.608-15.31 96.337-34.272 143.462-52.61C448.5 53.89 534.288 20.506 583.945 25.757c51.558 5.455 131.36 73.966 189.225 130.48 62.738 61.27 113.91 122.027 114.419 122.635l.69-.579c-.51-.608-51.711-61.399-114.48-122.7-36.871-36.009-70.461-65.149-99.84-86.608-36.763-26.854-67.017-41.7-89.92-44.122-3.516-.372-7.214-.552-11.077-.552-50.934-.002-131.095 31.194-215.618 64.084-47.112 18.334-95.828 37.291-143.41 52.593-28.661 9.216-58.564 4.116-88.878-15.163-24.3-15.452-48.914-39.99-73.162-72.934C10.582-3.233-15.657-65.105-15.917-65.723" fill="#86aec4"/></g><g clip-path="url(#h)" opacity=".476"><path d="M-22.883-64.887l-.837.33c.249.63 25.33 63.52 66.533 120.473 24.214 33.47 49.18 58.378 74.204 74.03 31.335 19.601 62.848 24.668 93.66 15.063 47.059-14.667 96.433-33.26 144.182-51.242 93.224-35.105 181.279-68.266 232.678-64.516 52.155 3.802 130.376 73.257 186.813 130.851C835.54 222.55 885 284.893 885.494 285.515l.706-.558c-.493-.623-49.984-63.005-111.208-125.485-35.963-36.703-68.881-66.259-97.838-87.849-36.244-27.023-66.372-41.58-89.551-43.27-51.585-3.76-139.74 29.43-233.061 64.572-47.737 17.977-97.1 36.565-144.132 51.225-69.23 21.577-128.957-36.358-166.868-88.762C2.405-1.475-22.634-64.26-22.883-64.887" fill="#85acc1"/></g><g clip-path="url(#i)" opacity=".471"><path d="M-29.85-64.05l-.843.312c.237.638 24.112 64.432 65.14 122.123 24.113 33.903 49.348 59.102 75.004 74.897 32.12 19.774 64.99 24.785 97.695 14.893 46.47-14.055 96.47-32.27 144.824-49.885 95.653-34.847 186.006-67.775 239.162-65.548 52.737 2.193 129.378 72.585 184.386 131.25 59.647 63.611 107.406 127.53 107.882 128.167l.722-.537c-.475-.639-48.262-64.592-107.942-128.24-35.06-37.392-67.305-67.365-95.842-89.089-35.72-27.193-65.721-41.476-89.17-42.45a126.276 126.276 0 00-5.238-.107c-53.9-.004-141.591 31.946-234.268 65.708-48.342 17.61-98.33 35.821-144.777 49.87-73.52 22.236-133.946-36.365-171.694-89.438C-5.773.282-29.613-63.413-29.85-64.05" fill="#85aabe"/></g><g clip-path="url(#j)" opacity=".467"><path d="M-36.815-63.215l-.85.295c.224.646 22.886 65.327 63.738 123.746 24.008 34.332 49.511 59.822 75.8 75.762 32.908 19.951 67.138 24.914 101.742 14.751 45.866-13.47 96.508-31.815 145.483-49.554 98.12-35.539 190.782-69.114 245.603-65.554 23.475 1.524 53.141 16.256 88.174 43.79 28.065 22.057 59.603 52.324 93.738 89.96 58.131 64.091 104.237 128.186 104.695 128.826l.732-.524c-.46-.64-46.595-64.778-104.76-128.908-34.169-37.672-65.744-67.974-93.848-90.062-35.18-27.648-65.013-42.445-88.672-43.98-54.995-3.57-147.757 30.032-245.969 65.605-48.96 17.736-99.59 36.074-145.43 49.537-77.822 22.861-138.956-36.409-176.54-90.15C-13.964 2.007-36.592-62.57-36.816-63.216" fill="#84a8bb"/></g><g clip-path="url(#k)" opacity=".462"><path d="M-43.78-62.38l-.857.277c.211.656 21.655 66.205 62.326 125.344 23.903 34.756 49.673 60.535 76.597 76.622 33.695 20.134 69.29 25.06 105.798 14.64 45.204-12.902 96.406-30.868 145.922-48.243 96.168-33.745 195.6-68.673 252.288-66.537 23.76.88 53.305 15.376 87.812 43.085 27.647 22.2 58.507 52.874 91.725 91.17C834.402 239.2 878.772 304.795 879.214 305.45l.746-.503c-.442-.656-44.837-66.29-101.444-131.553-33.254-38.337-64.154-69.05-91.843-91.286-34.662-27.834-64.387-42.397-88.346-43.286-56.837-2.107-156.37 32.815-252.619 66.588-49.504 17.371-100.693 35.333-145.87 48.228C117.695 177.08 55.85 117.141 18.43 62.731-22.166 3.7-43.569-61.726-43.78-62.379" fill="#83a5b9"/></g><g clip-path="url(#l)" opacity=".457"><path d="M-50.748-61.543l-.862.26c.2.663 20.42 67.063 60.906 126.912 23.795 35.173 49.833 61.241 77.392 77.478 34.484 20.321 71.447 25.219 109.865 14.561C241.4 145.227 293.558 128.065 344 111.47c98.13-32.287 199.601-65.673 257.91-68.257 24.032-1.057 53.421 12.381 87.391 39.964 27.224 22.104 57.41 53.276 89.715 92.651 55.024 67.06 97.677 135.577 98.101 136.262l.765-.475c-.424-.684-43.105-69.246-98.164-136.351-32.345-39.423-62.574-70.64-89.845-92.784-34.149-27.727-63.767-41.242-88.003-40.167-58.433 2.589-159.963 35.996-258.152 68.301-50.43 16.593-102.58 33.751-147.405 46.187-86.47 23.989-149.02-36.615-186.27-91.677C-30.369 5.389-50.549-60.88-50.747-61.543" fill="#82a3b6"/></g><g clip-path="url(#m)" opacity=".452"><path d="M-57.714-60.708l-.867.242c.187.672 19.177 67.903 59.478 128.45 23.685 35.585 49.99 61.94 78.184 78.332 35.276 20.511 73.612 25.394 113.942 14.516 44.477-11.996 95.263-28.133 149.032-45.217C442.14 83.813 545.631 50.93 605.501 46.702c24.287-1.718 53.538 11.492 86.976 39.251 26.801 22.248 56.312 53.831 87.714 93.873 53.48 68.194 94.426 138.208 94.833 138.907l.778-.453c-.408-.699-41.385-70.767-94.903-139.009-31.44-40.092-60.997-71.721-87.846-94.01-33.624-27.912-63.11-41.178-87.615-39.457-59.977 4.235-163.52 37.135-263.656 68.953-53.759 17.081-104.536 33.216-148.993 45.206C101.992 184.456 38.733 123.2 1.657 67.502c-40.226-60.43-59.184-127.539-59.37-128.21" fill="#81a1b3"/></g><g clip-path="url(#n)" opacity=".448"><path d="M-64.681-59.872l-.872.225c.097.378 9.973 38.377 31.51 82.81C-14.155 64.19 20.029 119.26 69.945 148.607c36.478 21.447 76.702 26.623 119.548 15.389 44.28-11.611 96.285-27.56 151.344-44.447 101.759-31.21 206.982-63.483 268.255-69.358 24.529-2.348 53.65 10.619 86.559 38.554 26.376 22.392 55.212 54.382 85.707 95.083 51.938 69.322 91.183 140.835 91.574 141.55l.79-.432c-.391-.715-39.663-72.277-91.64-141.65-30.534-40.757-59.417-72.8-85.846-95.234-33.1-28.1-62.444-41.143-87.23-38.767-61.363 5.885-166.631 38.17-268.434 69.394-55.048 16.882-107.045 32.83-151.308 44.436-42.607 11.172-82.6 6.026-118.862-15.294C20.68 118.598-13.4 63.687-33.233 22.77c-21.5-44.354-31.351-82.265-31.448-82.643" fill="#809fb0"/></g><g clip-path="url(#o)" opacity=".443"><path d="M-71.648-59.036l-.876.207c.088.376 9.1 38.104 29.786 82.486 19.102 40.982 52.352 96.185 102.28 126.447 37.977 23.017 80.511 28.756 126.42 17.057 44.352-11.303 98.004-27.178 154.806-43.987 102.993-30.476 209.493-61.99 271.915-69.493 24.795-2.99 53.775 9.765 86.151 37.88 25.954 22.54 54.117 54.939 83.705 96.3 50.394 70.446 87.927 143.43 88.3 144.16l.801-.411c-.373-.73-37.937-73.773-88.369-144.272-29.628-41.42-57.839-73.871-83.847-96.456-29.473-25.595-56.202-38.523-79.579-38.525a61.03 61.03 0 00-7.27.429c-62.497 7.513-169.034 39.038-272.063 69.525-56.793 16.805-110.437 32.678-154.772 43.977-45.666 11.639-87.966 5.935-125.728-16.953-49.73-30.141-82.877-85.178-101.926-126.04-20.652-44.302-29.646-81.956-29.734-82.331" fill="#7f9dad"/></g><g clip-path="url(#p)" opacity=".438"><path d="M-78.616-58.201l-.88.189c.08.373 8.254 37.83 28.105 82.154C-33.06 65.068-.74 120.39 49.136 151.53c39.418 24.612 84.266 30.936 133.295 18.793 44.824-11.097 100.796-27.07 160.055-43.98 103.54-29.547 210.606-60.1 273.786-69.175 25.062-3.594 53.901 8.924 85.745 37.22 25.532 22.685 53.02 55.49 81.698 97.506 48.848 71.562 84.675 146.026 85.031 146.769l.812-.388c-.356-.745-36.209-75.262-85.094-146.881-28.722-42.077-56.258-74.941-81.846-97.676-32.052-28.482-61.139-41.081-86.474-37.441-63.24 9.084-170.336 39.645-273.906 69.2-59.25 16.908-115.215 32.879-160.023 43.973-48.785 12.077-93.398 5.794-132.602-18.683C-.073 119.746-32.29 64.585-50.569 23.774-70.382-20.464-78.536-57.83-78.616-58.201" fill="#7e9baa"/></g><g clip-path="url(#q)" opacity=".433"><path d="M-85.582-57.365l-.885.172c.073.37 7.438 37.556 26.466 81.809 17.569 40.862 48.96 96.285 98.733 128.272 40.802 26.223 87.962 33.154 140.17 20.6 45.947-11.046 105.378-27.397 168.299-44.707 102.935-28.32 209.376-57.603 272.663-68.123 25.312-4.21 54.03 8.097 85.347 36.577 25.11 22.834 51.923 56.046 79.693 98.713 47.3 72.677 81.413 148.602 81.752 149.36l.822-.367c-.34-.76-34.476-76.74-81.814-149.475-27.813-42.734-54.676-76.007-79.844-98.895-27.491-25.001-53.04-37.617-76.104-37.62-3.388 0-6.72.274-10.001.819-63.333 10.527-169.796 39.817-272.753 68.142-62.913 17.309-122.337 33.658-168.271 44.702-51.96 12.493-98.886 5.6-139.472-20.483-49.582-31.865-80.873-87.125-98.393-127.87-18.99-44.167-26.336-81.257-26.408-81.626" fill="#7d98a8"/></g><g clip-path="url(#r)" opacity=".429"><path d="M-92.55-56.53l-.887.155c.065.368 6.646 37.278 24.864 81.452 16.82 40.788 47.287 96.293 96.902 129.096 42.127 27.85 91.6 35.415 147.042 22.48 48.224-11.25 113.197-28.485 181.985-46.731 100.23-26.586 203.876-54.077 266.096-65.775 25.59-4.81 54.174 7.283 84.962 35.949 24.69 22.986 50.829 56.607 77.69 99.928 45.75 73.786 78.138 151.155 78.46 151.927l.832-.345c-.322-.774-32.74-78.21-78.528-152.057-26.902-43.388-53.091-77.07-77.84-100.112-26.574-24.74-51.563-37.217-74.456-37.22-3.823 0-7.582.349-11.286 1.045-62.253 11.705-165.914 39.2-266.161 65.79-68.781 18.244-133.748 35.477-181.958 46.724-55.194 12.878-104.43 5.356-146.342-22.354C-20.6 120.745-50.967 65.406-67.74 24.735-85.921-19.35-92.486-56.163-92.55-56.53" fill="#7c96a5"/></g><g clip-path="url(#s)" opacity=".424"><path d="M-99.518-55.695l-.89.139c.057.365 5.88 36.995 23.3 81.079 16.085 40.703 45.63 96.273 95.039 129.858 43.395 29.497 95.177 37.718 153.909 24.436 52.867-11.957 127.79-31.133 207.112-51.436 93.1-23.828 189.369-48.468 248.088-60.745 25.86-5.407 54.319 6.48 84.58 35.33 24.272 23.139 49.735 57.165 75.683 101.134 44.199 74.892 74.864 153.708 75.169 154.495l.84-.325c-.305-.788-30.997-79.672-75.234-154.627-25.99-44.04-51.506-78.132-75.836-101.328-30.49-29.068-59.22-41.035-85.385-35.56-58.74 12.28-155.02 36.924-248.128 60.754-79.316 20.3-154.233 39.476-207.087 51.429-58.48 13.225-110.024 5.05-153.205-24.301-49.22-33.457-78.67-88.86-94.707-129.445C-93.655-18.8-99.461-55.331-99.518-55.695" fill="#7c94a2"/></g><g clip-path="url(#t)" opacity=".419"><path d="M-106.486-54.86l-.892.122c.05.362 5.136 36.708 21.77 80.69 15.36 40.607 43.987 96.22 93.147 130.56 44.605 31.158 98.698 40.066 160.77 26.469 64.147-14.05 166.018-39.3 264.534-63.721 76.835-19.046 149.408-37.036 197.786-48.137 26.143-5.995 54.473 5.686 84.208 34.723 23.852 23.292 48.639 57.724 73.675 102.339 42.645 75.996 71.582 156.252 71.869 157.054l.848-.304c-.288-.802-29.25-81.13-71.932-157.19-25.078-44.691-49.918-79.191-73.831-102.542-29.97-29.266-58.578-41.027-85.038-34.957-48.386 11.103-120.963 29.093-197.802 48.14-98.51 24.419-200.374 49.67-264.508 63.716-61.82 13.539-115.67 4.682-160.06-26.325-48.967-34.203-77.501-89.64-92.815-130.122-16.603-43.89-21.68-80.154-21.73-80.514" fill="#7b929f"/></g><g clip-path="url(#u)" opacity=".414"><path d="M-113.454-54.024l-.895.105c.043.36 4.415 36.414 20.275 80.278 14.644 40.5 42.357 96.137 91.224 131.2 45.759 32.835 102.159 42.454 167.63 28.586C284.165 160.859 544.125 97.06 634.217 74.613c26.424-6.584 54.633 4.896 83.845 34.123 23.432 23.445 47.545 58.282 71.666 103.543 41.089 77.096 68.294 158.788 68.563 159.604l.856-.282c-.271-.818-27.5-82.582-68.624-159.745-24.165-45.34-48.33-80.248-71.825-103.756C689.247 78.634 660.744 67.077 634 73.74c-90.09 22.447-350.035 86.24-469.407 111.524-65.214 13.813-121.37 4.245-166.914-28.433-48.675-34.924-76.298-90.382-90.9-130.756-15.828-43.771-20.191-79.741-20.233-80.1" fill="#7a909c"/></g><g clip-path="url(#v)" opacity=".41"><path d="M-120.423-53.19l-.896.09c.036.356 3.713 36.11 18.81 79.844 13.94 40.378 40.742 96.016 89.276 131.776 46.857 34.526 105.56 44.885 174.482 30.79 113.925-23.3 365.484-81.413 476.555-111.21 26.711-7.162 54.8 4.116 83.487 33.533 23.015 23.6 46.452 58.84 69.66 104.746 39.53 78.195 64.997 161.317 65.25 162.147l.861-.262c-.253-.831-25.743-84.027-65.308-162.291-23.249-45.987-46.739-81.304-69.819-104.97-28.93-29.667-57.319-41.032-84.364-33.771-111.057 29.792-362.589 87.898-476.503 111.195-68.657 14.04-127.12 3.738-173.763-30.628-48.344-35.618-75.058-91.076-88.956-131.326-15.066-43.638-18.736-79.307-18.772-79.662" fill="#798d9a"/></g><g clip-path="url(#w)" opacity=".405"><path d="M-127.391-52.355l-.897.072c.028.355 3.03 35.799 17.374 79.383 13.243 40.241 39.139 95.857 87.302 132.288 47.899 36.23 108.906 47.364 181.33 33.085 111.373-21.955 368.25-77.785 483.674-110.884 16.79-4.814 34.078-2.347 51.382 7.33 48.215 26.97 89.51 106.06 115.66 167.66 28.356 66.79 45.508 127.98 45.677 128.59l.868-.24c-.17-.611-17.335-61.85-45.711-128.692-26.207-61.733-67.615-141.008-116.054-168.102-17.522-9.801-35.043-12.295-52.07-7.411-115.4 33.092-372.24 88.914-483.6 110.866-72.16 14.225-132.924 3.15-180.61-32.916-47.972-36.285-73.782-91.718-86.985-131.831-14.315-43.488-17.312-78.845-17.34-79.197" fill="#788b97"/></g><g clip-path="url(#x)" opacity=".4"><path d="M-134.36-51.52l-.898.058c.022.349 2.367 35.472 15.967 78.892 12.556 40.087 37.547 95.654 85.302 132.728 48.885 37.95 112.198 49.885 188.177 35.479 94.217-17.865 366.052-72.553 490.79-110.56 17.047-5.193 34.436-2.898 51.683 6.826 47.786 26.942 87.48 107.033 112.364 169.476 26.98 67.703 42.84 129.816 42.996 130.435l.873-.221c-.157-.62-16.03-62.79-43.033-130.547-24.937-62.578-64.743-142.856-112.759-169.927-17.468-9.85-35.094-12.17-52.385-6.903-124.7 37.994-396.494 92.673-490.697 110.535-75.714 14.358-138.786 2.481-187.458-35.305-47.569-36.93-72.476-92.32-84.994-132.286-13.567-43.317-15.906-78.33-15.928-78.68" fill="#778994"/></g></g><g clip-path="url(#y)" opacity=".4"><g clip-path="url(#z)" opacity=".5"><path d="M637.871 28.444c-25.146 0-49.583 1.992-71.243 7.016-44.046 10.215-98.27 34.166-155.677 59.521-96.337 42.551-195.954 86.553-263.095 73.256-70.668-13.992-112.78-36.059-135.666-52.105-24.787-17.38-32.975-31.636-33.055-31.778l-.668.375c.08.144 8.322 14.514 33.223 31.988 22.948 16.104 65.174 38.245 136.017 52.272 67.378 13.342 167.108-30.708 263.553-73.307 57.374-25.34 111.566-49.276 155.542-59.476 60.645-14.066 143.215-4.303 201.804 6.363 63.501 11.562 113.291 26.646 113.787 26.797l.223-.733c-.495-.15-50.32-15.247-113.864-26.816-37.756-6.874-85.469-13.373-130.88-13.373" fill="#fff"/></g><g clip-path="url(#A)" opacity=".524"><path d="M635.165 35.837c-23.815 0-46.772 1.7-67.467 5.866-45.988 9.14-102.137 31.64-161.584 55.463-95.04 38.085-193.313 77.466-259.111 65.317a784.695 784.695 0 01-12.498-2.37c-65.203-12.988-104.51-33.93-126.003-49.21-23.252-16.53-31.196-30.137-31.274-30.273l-.665.38c.078.138 8.107 13.89 31.496 30.518 21.553 15.324 60.96 36.322 126.297 49.337 4.101.812 8.309 1.61 12.509 2.37 66.007 12.199 164.393-27.231 259.534-65.357 59.412-23.81 115.531-46.297 161.45-55.423 87.68-17.65 216.209 9.034 277.975 21.857 24.348 5.055 34.278 7.06 35.663 5.857a.662.662 0 00.235-.55l-.765.05c-1.045.942-16.021-2.172-34.978-6.107-47.252-9.81-133.544-27.725-210.814-27.725" fill="#fff"/></g><g clip-path="url(#B)" opacity=".548"><path d="M630.736 43.373c-21.769 0-42.79 1.331-61.968 4.574-47.86 8.095-105.809 28.931-167.16 50.99-93.845 33.745-190.887 68.636-255.46 57.79l-1.873-.315c-3.64-.61-7.2-1.208-10.672-1.815-65.08-11.521-104.653-32.035-126.39-47.214C-16.332 90.94-24.599 77.044-24.68 76.905l-.662.386c.081.14 8.404 14.148 32.061 30.683 21.804 15.237 61.493 35.826 126.751 47.378 3.475.607 7.036 1.205 10.678 1.816l1.873.314c64.77 10.879 161.908-24.046 255.846-57.824 61.317-22.048 119.235-42.872 167.028-50.955C646.68 35.547 755.01 53.92 819.738 64.895c34.274 5.813 56.917 9.654 60.301 6.601.37-.332.548-.758.517-1.23l-.765.048c.015.241-.069.436-.265.613-3.11 2.806-26.83-1.219-59.66-6.786-48.83-8.282-122.464-20.768-189.13-20.768" fill="#fff"/></g><g clip-path="url(#C)" opacity=".571"><path d="M626.24 50.694c-19.617 0-38.65 1.025-56.402 3.497-49.95 6.955-109.924 26.118-173.419 46.406-92.389 29.521-187.926 60.045-251.125 50.374-2.435-.373-4.834-.729-7.193-1.08-1.824-.272-3.624-.54-5.4-.809-64.998-10.06-104.848-30.165-126.833-45.259-23.813-16.349-32.37-30.5-32.455-30.64l-.659.39c.084.142 8.7 14.406 32.628 30.846 22.053 15.152 62.024 35.331 127.203 45.421 1.778.27 3.58.537 5.404.808 2.357.352 4.754.708 7.19 1.081 63.385 9.697 159.001-20.854 251.474-50.4 63.462-20.28 123.405-39.433 173.29-46.378 70.503-9.819 161.456 3.216 227.868 12.731 43.554 6.242 75.026 10.752 80.62 5.573.696-.644 1.02-1.433.96-2.345l-.765.05c.045.678-.19 1.246-.715 1.732-5.33 4.931-36.645.443-79.99-5.769-49.75-7.127-113.27-16.228-171.682-16.229" fill="#fff"/></g><g clip-path="url(#D)" opacity=".595"><path d="M620.088 57.98c-16.982 0-33.516.729-49.182 2.457-52.203 5.759-117.256 23.98-180.168 41.603-90.734 25.414-184.554 51.7-246.297 43.175-2.931-.402-5.805-.77-8.618-1.13-1.355-.172-2.697-.343-4.024-.516-64.935-8.453-105.061-28.156-127.29-43.196-24.074-16.291-32.915-30.77-33.002-30.914l-.657.393c.087.146 8.987 14.738 33.18 31.12 22.299 15.1 62.55 34.88 127.67 43.357 1.328.173 2.67.344 4.026.517 2.81.36 5.682.726 8.61 1.13 61.896 8.536 155.798-17.762 246.608-43.198C453.826 85.163 518.85 66.95 570.99 61.198c64.34-7.1 143.539 2.695 207.179 10.564 52.562 6.497 90.536 11.193 98.507 3.672 1.126-1.061 1.647-2.367 1.55-3.88l-.766.05c.084 1.292-.345 2.362-1.31 3.273-7.71 7.275-47.504 2.353-97.886-3.875-48.196-5.96-105.32-13.021-158.176-13.021" fill="#fff"/></g><g clip-path="url(#E)" opacity=".619"><path d="M611.975 65.174c-13.761-.001-27.182.453-40 1.508-54.668 4.498-122.226 20.804-187.56 36.573-88.823 21.44-180.671 43.61-240.828 36.207-3.476-.428-6.878-.79-10.168-1.14l-2.522-.27C66.046 131.08 25.642 111.786 3.167 96.828-21.178 80.625-30.31 65.883-30.4 65.736l-.655.398c.09.147 9.283 15.005 33.747 31.298 22.55 15.018 63.082 34.388 128.123 41.383l2.524.269c3.286.35 6.684.71 10.154 1.138 60.294 7.42 152.212-14.766 241.103-36.222C449.9 88.238 517.429 71.939 572.038 67.445c58.72-4.834 130.335 2.968 187.879 9.235 58.327 6.35 104.396 11.369 114.867 1.348 1.658-1.587 2.424-3.548 2.277-5.83l-.766.05c.135 2.073-.533 3.782-2.041 5.226-10.212 9.773-56.124 4.775-114.254-1.556-45.024-4.903-98.666-10.744-148.025-10.744" fill="#fff"/></g><g clip-path="url(#F)" opacity=".643"><path d="M-32.307 62.01l-.652.403c.092.15 9.58 15.275 34.314 31.48 22.8 14.937 63.614 33.9 128.574 39.409l1.263.106c3.7.313 7.523.635 11.458 1.06 58.518 6.323 144.093-11.073 234.691-29.487 68.03-13.827 138.375-28.126 195.746-31.288 53.364-2.945 115.03 3.117 169.433 8.464 65.461 6.435 117.168 11.515 130.24-1.128 2.288-2.214 3.343-4.968 3.135-8.185l-.765.049c.196 3.025-.753 5.506-2.903 7.585-12.817 12.398-66.952 7.077-129.632.917-54.432-5.35-116.126-11.41-169.55-8.468-57.426 3.166-127.799 17.47-195.856 31.303-90.538 18.4-176.057 35.78-234.457 29.476-3.943-.425-7.772-.75-11.476-1.061l-1.262-.107c-64.767-5.492-105.448-24.38-128.17-39.255C-22.79 77.169-32.216 62.16-32.307 62.01" fill="#fff"/></g><g clip-path="url(#G)" opacity=".667"><path d="M-34.214 58.288l-.65.406c.096.154 9.878 15.541 34.883 31.657 23.05 14.856 64.148 33.41 129.026 37.438l.3.02c4.014.248 8.165.505 12.462.906 56.488 5.248 139.305-8.484 226.986-23.023 71.188-11.804 144.799-24.01 205.342-25.754 48.102-1.379 103.014 3.631 151.46 8.056 69.349 6.335 129.239 11.807 145.015-3.56 3.014-2.935 4.4-6.618 4.12-10.945l-.765.05c.27 4.15-1.003 7.535-3.89 10.347-15.52 15.117-75.25 9.662-144.41 3.345-48.468-4.427-103.406-9.44-151.551-8.058-60.596 1.744-134.234 13.955-205.446 25.763-87.631 14.532-170.403 28.258-226.79 23.015-4.31-.4-8.466-.659-12.485-.909l-.3-.019C64.412 123.01 23.453 104.531.482 89.737c-24.883-16.025-34.6-31.297-34.696-31.449" fill="#fff"/></g><g clip-path="url(#H)" opacity=".69"><path d="M-36.12 54.565l-.648.41c.098.155 10.175 15.801 35.452 31.824 23.302 14.772 64.68 32.917 129.475 35.475 4.282.17 8.483.35 12.805.686 55.29 4.32 136.76-6.044 223.015-17.017 73.008-9.29 148.502-18.895 211.208-19.759 44.41-.602 94.404 3.783 138.525 7.659 73.28 6.437 136.568 11.997 154.675-5.7 3.797-3.71 5.538-8.424 5.177-14.01l-.766.05c.353 5.427-1.266 9.815-4.947 13.412-17.853 17.45-80.979 11.905-154.072 5.484-44.14-3.878-94.186-8.273-138.602-7.66-62.75.864-138.266 10.471-211.295 19.762-86.214 10.97-167.648 21.33-222.858 17.016-4.336-.339-8.545-.52-12.835-.689C63.596 118.96 22.36 100.89-.859 86.181-26.01 70.25-36.023 54.72-36.12 54.564" fill="#fff"/></g><g clip-path="url(#I)" opacity=".714"><path d="M-38.027 50.84l-.646.415c.103.158 10.475 16.065 36.023 31.996 23.554 14.689 65.213 32.425 129.924 33.51 3.808.064 8.255.157 12.848.446 51.005 3.207 125.59-3.748 204.554-11.113 79.86-7.45 162.438-15.15 231.558-13.663 37.39.806 77.249 4.303 115.794 7.683 81.77 7.173 152.389 13.368 173.897-7.655 4.754-4.647 6.933-10.596 6.474-17.681l-.766.049c.45 6.949-1.592 12.536-6.244 17.084-21.257 20.778-91.713 14.596-173.295 7.44-38.557-3.382-78.427-6.88-115.845-7.686-69.165-1.494-151.764 6.214-231.644 13.666-78.933 7.364-153.488 14.322-204.435 11.11-4.61-.288-9.067-.381-12.883-.446-64.535-1.082-106.06-18.757-129.532-33.393C-27.648 66.76-37.926 50.998-38.027 50.84" fill="#fff"/></g><g clip-path="url(#J)" opacity=".738"><path d="M-39.935 47.117l-.643.418c.105.161 10.773 16.325 36.593 32.164 23.804 14.605 65.736 31.956 130.374 31.548 3.985-.023 8.304-.015 12.89.205 46.763 2.238 114.444-1.723 186.1-5.918 82.582-4.836 176.183-10.314 251.903-6.857 31.774 1.451 65.26 4.494 97.64 7.436 84.29 7.661 163.907 14.896 188.467-9.037 5.772-5.623 8.41-12.908 7.844-21.653l-.766.048c.56 8.632-1.93 15.52-7.612 21.056-24.31 23.687-103.754 16.467-187.863 8.823-32.39-2.943-65.883-5.987-97.675-7.439-75.765-3.459-169.383 2.021-251.983 6.857-71.634 4.195-139.297 8.16-186.018 5.918-4.605-.22-8.935-.229-12.932-.205-.7.004-1.402.006-2.097.006-63.23 0-104.369-17.033-127.827-31.414-25.69-15.749-36.29-31.796-36.395-31.956" fill="#fff"/></g><g clip-path="url(#K)" opacity=".762"><path d="M-41.841 43.395l-.641.42c.108.164 11.072 16.584 37.162 32.33 24.057 14.517 66.28 31.437 130.825 29.588 3.487-.099 8.109-.194 12.932-.035 39.998 1.317 96.326-.127 155.96-1.656 92.705-2.377 197.779-5.07 283.934.88 25.893 1.787 52.895 4.416 79.008 6.958 90.316 8.793 175.62 17.096 203.384-9.782 6.889-6.669 10.032-15.427 9.346-26.03l-.766.05c.682 10.515-2.3 18.833-9.112 25.429-27.51 26.633-112.643 18.347-202.778 9.572-26.118-2.542-53.126-5.172-79.03-6.96-86.193-5.954-191.284-3.26-284.005-.882-59.624 1.527-115.942 2.973-155.916 1.656-4.845-.158-9.481-.064-12.98.035-64.356 1.83-106.437-15.014-130.406-29.48-25.943-15.656-36.81-31.931-36.917-32.093" fill="#fff"/></g><g clip-path="url(#L)" opacity=".786"><path d="M-43.748 39.67l-.639.425c.111.167 11.37 16.84 37.733 32.49 24.307 14.433 66.82 30.938 131.273 27.635 5.071-.26 9.074-.347 12.975-.276 25.515.457 56.768.54 92.955.639 101.541.274 240.604.648 348.832 10.584 19.683 1.807 40.022 3.985 59.691 6.093 96.536 10.342 187.717 20.11 218.847-9.737 8.108-7.776 11.804-18.141 10.982-30.81l-.764.049c.817 12.608-2.698 22.489-10.748 30.207-30.873 29.602-121.881 19.852-218.236 9.529-19.672-2.107-40.013-4.287-59.702-6.095-108.262-9.938-247.345-10.313-348.9-10.586-36.184-.097-67.434-.181-92.944-.638-3.923-.07-7.938.015-13.027.275-64.241 3.295-106.588-13.137-130.8-27.501C-32.45 56.39-43.638 39.836-43.748 39.67" fill="#fff"/></g><g clip-path="url(#M)" opacity=".81"><path d="M-45.655 35.947l-.636.428c.114.17 11.67 17.093 38.302 32.65 24.56 14.344 67.346 30.443 131.722 25.68 4.536-.335 8.647-.604 13.012-.516 87.812 1.828 293.454 6.108 443.686 23.223 13.09 1.491 26.513 3.105 39.495 4.667 49.367 5.936 100.415 12.075 142.215 12.493 46.861.468 77.251-6.475 92.835-21.226 9.436-8.93 13.73-21.039 12.761-35.989l-.766.05c.955 14.712-3.259 26.616-12.52 35.383-34.424 32.582-136.103 20.353-234.434 8.528-12.982-1.56-26.407-3.176-39.5-4.668C430.25 99.531 224.584 95.251 136.761 93.424c-4.399-.096-8.529.18-13.084.517C59.528 98.683 16.9 82.664-7.56 68.387c-26.5-15.466-37.982-32.272-38.095-32.44" fill="#fff"/></g><g clip-path="url(#N)" opacity=".833"><path d="M-47.562 32.225l-.634.43C-48.08 32.827-36.229 50-9.325 65.46c24.81 14.255 67.882 29.943 132.173 23.732 4.742-.46 9.014-.706 13.061-.757 95.34-1.181 291.054 14.294 445.572 35.223 6.074.822 12.164 1.655 18.256 2.487 105.069 14.365 213.716 29.217 252.158-6.58 10.87-10.122 15.808-24.107 14.677-41.563l-.765.049c1.116 17.216-3.742 30.995-14.435 40.953-38.177 35.55-146.639 20.722-251.531 6.382-6.093-.833-12.183-1.665-18.256-2.488-154.552-20.933-350.314-36.434-445.686-35.23-4.068.05-8.361.3-13.125.76C58.708 94.623 15.808 79.007-8.901 64.82-35.67 49.45-47.446 32.395-47.562 32.225" fill="#fff"/></g><g clip-path="url(#O)" opacity=".857"><path d="M-49.468 28.501l-.632.434c.12.173 12.264 17.592 39.439 32.951 25.06 14.165 68.414 29.44 132.625 21.79 4.662-.556 8.948-.881 13.103-.995 107.702-2.934 326.585 28.318 447.465 47.221 51.74 8.091 110.38 17.261 158.91 18.99 53.338 1.905 88.41-5.535 107.232-22.728 12.41-11.337 18.04-27.323 16.733-47.517l-.765.049c1.292 19.951-4.254 35.731-16.485 46.903-18.667 17.05-53.566 24.414-106.688 22.527-48.483-1.728-107.101-10.894-158.817-18.981-115.52-18.065-320.531-47.423-432.57-47.425-5.224 0-10.235.063-15.037.195-4.178.114-8.486.441-13.172.999-63.983 7.627-107.16-7.576-132.116-21.672-27.038-15.27-39.106-32.568-39.225-32.741" fill="#fff"/></g><g clip-path="url(#P)" opacity=".881"><path d="M-51.375 24.778l-.63.437c.123.176 12.56 17.84 40.006 33.101C13.312 72.39 56.945 87.256 121.078 78.16c4.582-.649 8.882-1.053 13.146-1.234 92.708-3.952 278.073 28.888 427.014 55.266l22.346 3.955c113.705 20.1 219.288 34.991 261.79-3.065 14.019-12.553 20.366-30.65 18.866-53.79l-.764.05c1.483 22.892-4.779 40.782-18.614 53.168-42.245 37.827-147.632 22.95-261.145 2.883l-22.345-3.955c-140.713-24.922-313.935-55.599-410.913-55.6a382.094 382.094 0 00-16.268.323c-4.289.181-8.613.588-13.22 1.241C57.073 86.46 13.617 71.672-11.586 57.67c-27.307-15.173-39.667-32.715-39.789-32.89" fill="#fff"/></g><g clip-path="url(#Q)" opacity=".905"><path d="M-53.282 21.055l-.628.439c.126.179 12.857 18.09 40.573 33.253 25.56 13.985 69.478 28.442 133.53 17.899a126.3 126.3 0 0113.188-1.474c79.31-4.59 223.774 24.945 363.485 53.5 30.627 6.26 59.556 12.173 87.769 17.72 100.8 19.82 212.132 37.637 257.405-2.127 15.66-13.753 22.738-34.051 21.035-60.328l-.765.049c1.686 26.028-5.303 46.115-20.776 59.704-45.008 39.53-156.13 21.734-256.751 1.95-28.211-5.547-57.137-11.46-87.763-17.72-130.01-26.57-264.152-53.983-346.152-53.987-6.15 0-11.991.154-17.531.474-4.358.252-8.822.75-13.268 1.483C56.232 82.396 12.487 68-12.97 54.076c-27.561-15.08-40.188-32.843-40.313-33.021" fill="#fff"/></g><g clip-path="url(#R)" opacity=".929"><path d="M-55.189 17.332l-.625.443c.128.181 13.141 18.281 41.122 33.316 25.807 13.867 70.001 27.906 133.998 16.04a117.567 117.567 0 0113.233-1.714c73.694-5.373 207.812 26.164 337.514 56.662 38.641 9.087 78.599 18.482 115.632 26.557 104.851 22.425 208.083 37.815 253.114-1.076 17.249-14.899 25.025-37.434 23.111-66.979l-.766.049c1.899 29.293-5.788 51.616-22.846 66.349-44.779 38.674-147.797 23.291-252.451.908-37.026-8.073-76.98-17.468-115.619-26.554-119.914-28.197-243.609-57.281-319.941-57.284-6.266 0-12.205.196-17.804.604-4.533.33-9.014.91-13.318 1.724C55.415 78.198 11.404 64.233-14.29 50.436c-27.838-14.948-40.772-32.924-40.899-33.104" fill="#fff"/></g><g clip-path="url(#S)" opacity=".952"><path d="M-57.095 13.61l-.624.444c.13.184 13.438 18.54 41.689 33.481 26.057 13.782 70.533 27.41 134.45 14.08 4.228-.893 8.694-1.549 13.276-1.953 69.252-6.116 195.147 27.385 316.893 59.78 46.165 12.284 93.9 24.985 138.149 35.438 62.77 14.651 109.606 22.176 147.39 23.684 47.41 1.898 80.552-5.746 101.324-23.352 18.924-16.04 27.434-40.934 25.293-73.986l-.765.05c2.125 32.797-6.294 57.476-25.024 73.352-20.618 17.475-53.59 25.06-100.796 23.17-37.736-1.505-84.525-9.025-147.248-23.664-44.236-10.45-91.966-23.15-138.126-35.432-111.988-29.799-227.494-60.53-299.313-60.533-6.298 0-12.25.236-17.844.73-4.613.406-9.11 1.067-13.365 1.965C54.572 74.15 10.274 60.58-15.672 46.857-43.764 32-56.965 13.792-57.095 13.61" fill="#fff"/></g><g clip-path="url(#T)" opacity=".976"><path d="M-59.002 9.887l-.622.447c.134.187 13.734 18.798 42.255 33.646C8.938 57.675 53.7 70.896 117.535 56.099c4.107-.956 8.588-1.693 13.318-2.191 66.168-6.735 181.207 27.435 302.993 63.617 51.382 15.265 104.516 31.05 153.943 43.6 88.112 22.245 195.514 42.565 244.353 1.919 20.585-17.133 29.817-44.443 27.438-81.173l-.765.049c2.363 36.472-6.776 63.568-27.164 80.535-48.571 40.424-155.738 20.126-243.674-2.072-49.412-12.547-102.538-28.33-153.914-43.593C322.684 83.7 216.944 52.288 148.937 52.286c-6.398 0-12.458.279-18.162.86-4.764.5-9.277 1.243-13.413 2.207C53.753 70.095 9.178 56.937-17.015 43.3-45.377 28.535-58.869 10.072-59.002 9.887" fill="#fff"/></g><g clip-path="url(#U)"><path d="M-60.909 6.164l-.62.45c.137.19 14.03 19.056 42.822 33.81 26.557 13.61 71.6 26.42 135.357 10.16 60.581-15.45 179.707 23.715 305.827 65.181 81.151 26.68 165.065 54.268 237.241 68.444 81.687 16.047 136.511 12.143 167.595-11.929 23.325-18.062 33.79-48.263 31.101-89.764l-.766.048c2.672 41.232-7.692 71.213-30.804 89.111-30.899 23.927-85.518 27.782-166.978 11.782-72.13-14.167-156.02-41.748-237.149-68.42-106.923-35.154-208.832-68.656-274.45-68.659-11.85 0-22.508 1.091-31.807 3.463C52.934 66.043 8.082 53.292-18.358 39.742c-28.63-14.672-42.415-33.39-42.55-33.578" fill="#fff"/></g></g><g clip-path="url(#V)" opacity=".5"><g clip-path="url(#W)" opacity=".1"><path d="M540.346 111.048c-23.208 0-44.584 1.855-62.582 6.286-50.705 12.48-86.272 51.363-120.668 88.965-50.713 55.439-98.613 107.805-189.124 72.56-136.844-53.281-282.83-72.42-284.29-72.606l-.105.83c1.457.188 147.346 19.314 284.092 72.559 91.046 35.447 139.133-17.121 190.044-72.778 34.313-37.51 69.793-76.296 120.25-88.717 64.317-15.832 172.155 1.318 251.297 18.494 85.776 18.615 157.244 41.268 157.956 41.496l.254-.8c-.712-.226-72.218-22.891-158.032-41.515-57.11-12.393-129.17-24.774-189.092-24.774" fill="#fff"/></g><g clip-path="url(#X)" opacity=".133"><path d="M531.331 112.243c-17.747 0-34.188 1.264-48.746 4.143-50.279 9.94-86.353 46.302-121.238 81.468-33.869 34.14-65.86 66.387-109.629 76.211-25.302 5.771-51.876 3.522-81.249-6.872C34.75 219.17-110.939 205.84-112.395 205.71l-.079.898c1.454.13 147.034 13.45 282.642 61.437 29.54 10.452 56.28 12.71 81.75 6.9 44.024-9.88 76.105-42.219 110.07-76.456 34.79-35.068 70.763-71.33 120.773-81.219 86.526-17.108 240.616 22.972 332.678 46.92 48.281 12.56 69.675 17.95 70.846 14.166l-.86-.267c-.97 3.122-32.846-5.17-69.758-14.773-76.673-19.944-196.348-51.069-284.336-51.073" fill="#fff"/></g><g clip-path="url(#Y)" opacity=".167"><path d="M522.919 113.053c-12.642-.001-24.545.743-35.508 2.384-49.907 7.472-86.593 41.349-122.071 74.11-32.907 30.388-66.934 61.81-111.127 71.329-25.843 5.567-52.42 3.818-81.25-5.35-134.561-42.785-279.984-50.288-281.438-50.36l-.046.967c1.45.07 146.753 7.569 281.19 50.316 28.995 9.218 55.733 10.978 81.748 5.373 44.45-9.576 78.577-41.088 111.579-71.564 35.37-32.662 71.945-66.436 121.558-73.864 76.304-11.425 199.26 20.825 289.042 44.374 63.397 16.628 105.279 27.612 108.23 18.085l-.923-.287c-2.678 8.646-48.743-3.44-107.061-18.734-76.985-20.191-178.356-46.775-253.923-46.78" fill="#fff"/></g><g clip-path="url(#Z)" opacity=".2"><path d="M515.698 113.372c-8.164 0-16.002.355-23.46 1.117-49.504 5.058-86.849 36.48-122.965 66.866-33.422 28.121-67.982 57.2-112.564 66.33-26.365 5.4-52.944 4.147-81.254-3.828-133.372-37.57-278.562-39.22-280.013-39.232l-.009 1.031c1.45.013 146.507 1.663 279.742 39.195 28.472 8.02 55.211 9.278 81.741 3.845 44.84-9.182 79.501-38.346 113.022-66.55 35.996-30.288 73.218-61.605 122.406-66.629 69.862-7.142 173.913 21.511 257.514 44.532 74.616 20.546 128.525 35.392 133.512 19.297l-.986-.305c-4.69 15.136-60.985-.363-132.25-19.987-74.778-20.59-165.9-45.68-234.436-45.682" fill="#fff"/></g><g clip-path="url(#aa)" opacity=".233"><path d="M509.565 113.21c-4.256 0-8.416.108-12.495.333-49.13 2.703-85.53 30.415-124.068 59.755-33.887 25.799-68.929 52.477-113.797 61.196-26.966 5.24-53.547 4.488-81.262-2.304-132.15-32.382-277.136-28.152-278.587-28.106l.035 1.096c1.448-.046 146.29-4.271 278.291 28.076 27.872 6.829 54.607 7.588 81.732 2.314 45.12-8.767 80.265-35.524 114.253-61.4 38.4-29.234 74.67-56.848 123.463-59.531 65.254-3.601 154.463 22.718 233.164 45.929 80.672 23.792 144.391 42.587 151.618 19.274l-1.047-.324c-6.907 22.275-73.338 2.684-150.26-20.001-73.877-21.79-157.007-46.303-221.04-46.306" fill="#fff"/></g><g clip-path="url(#ab)" opacity=".267"><path d="M489.017 111.866c-43.834-.002-78.95 25.441-115.942 52.24-33.39 24.19-67.915 49.2-111.372 57.198-27.678 5.092-54.263 4.836-81.273-.782-130.9-27.23-275.714-17.087-277.162-16.979l.085 1.158c1.447-.106 146.103-10.238 276.84 16.958 27.16 5.65 53.892 5.908 81.72.787 43.716-8.045 78.35-33.135 111.844-57.399 40.377-29.25 78.527-56.87 128.088-51.292 52.47 5.914 118.234 25.81 181.832 45.051 99.808 30.197 186.007 56.278 196.777 21.531l-1.11-.344c-10.428 33.642-100.241 6.47-195.33-22.299-63.648-19.256-129.464-39.168-182.038-45.094a115.527 115.527 0 00-12.96-.734" fill="#fff"/></g><g clip-path="url(#ac)" opacity=".3"><path d="M487.33 109.944c-40.649-.003-75.07 22.421-111.234 45.975-33.713 21.958-68.574 44.663-111.895 52.194-28.934 5.031-54.765 5.265-81.288.74-129.623-22.114-274.29-6.013-275.737-5.849l.14 1.218c1.443-.165 145.944-16.243 275.39 5.84 26.666 4.55 52.63 4.315 81.705-.74 43.57-7.575 78.538-30.35 112.355-52.375 41.59-27.089 80.874-52.684 129.847-44.078 47.361 8.312 104.451 27.407 159.662 45.873 85.282 28.524 165.835 55.466 198.727 38.601 7.003-3.589 11.712-9.145 13.995-16.51l-1.172-.365c-2.213 7.14-6.59 12.302-13.383 15.784-32.434 16.628-112.749-10.235-197.778-38.673-55.254-18.48-112.389-37.59-159.838-45.919a112.645 112.645 0 00-19.496-1.716" fill="#fff"/></g><g clip-path="url(#ad)" opacity=".333"><path d="M499.4 110.193c-43.05-.002-79.265 19.341-117.423 39.72-34.692 18.525-70.565 37.681-115.279 45.01-20.495 3.36-48.259 6.65-81.306 2.263-128.319-17.037-272.865 5.055-274.31 5.28l.2 1.276c1.442-.225 145.808-22.286 273.94-5.277 33.217 4.414 61.102 1.104 81.685-2.268 44.925-7.362 80.893-26.57 115.678-45.147 41.528-22.176 80.757-43.124 128.89-39.054 56.907 4.81 124.975 30.662 185.03 53.471 71.865 27.294 133.93 50.868 164.306 36.057 8.182-3.988 13.81-10.784 16.728-20.197l-1.235-.383c-2.847 9.187-8.1 15.54-16.059 19.42-29.873 14.565-91.698-8.916-163.283-36.105-60.133-22.838-128.29-48.724-185.378-53.55a144.411 144.411 0 00-12.184-.516" fill="#fff"/></g><g clip-path="url(#ae)" opacity=".367"><path d="M497.207 108.516c-40.445-.002-76.064 16.494-113.487 33.82-34.611 16.028-70.399 32.599-114.522 39.396-22.827 3.515-50.34 6.713-81.328 3.788-127-12.003-271.439 16.125-272.883 16.41l.263 1.33c1.442-.284 145.698-28.372 272.492-16.39 31.137 2.943 58.754-.27 81.662-3.798 44.313-6.826 80.19-23.438 114.886-39.503 43.05-19.934 83.71-38.762 131.96-32.455 55.224 7.216 118.513 33.492 174.353 56.674 70.815 29.4 131.975 54.79 164.708 39.448 10.151-4.758 16.945-13.071 20.77-25.412l-1.295-.403c-3.707 11.957-10.266 19.999-20.051 24.586-32.185 15.088-93.091-10.194-163.612-39.471-55.918-23.215-119.296-49.527-174.697-56.768a147.962 147.962 0 00-19.219-1.252" fill="#fff"/></g><g clip-path="url(#af)" opacity=".4"><path d="M493.877 106.411c-37.488-.002-71.363 13.377-109.443 28.414-34.234 13.518-69.633 27.495-112.737 33.716-20.775 2.997-49.226 7.107-81.354 5.31-125.658-7.013-270.012 27.198-271.455 27.543l.332 1.383c1.441-.346 145.588-34.512 271.044-27.506 32.269 1.802 60.801-2.317 81.636-5.324 43.269-6.244 78.746-20.253 113.056-33.8 46.913-18.523 87.431-34.522 136.067-25.92 53.912 9.534 113.205 36.435 165.517 60.17 69.052 31.33 128.691 58.39 163.118 42.921 12.005-5.39 20.171-15.532 24.966-31l-1.357-.42c-4.667 15.055-12.58 24.91-24.191 30.123-33.845 15.205-93.211-11.73-161.948-42.919-52.39-23.769-111.769-50.71-165.856-60.275a156.871 156.871 0 00-27.395-2.416" fill="#fff"/></g><g clip-path="url(#ag)" opacity=".433"><path d="M490.136 103.934c-35.526 0-69.061 11.063-106.432 23.39-33.437 11.03-68.012 22.434-109.506 28.026-20.935 2.82-49.107 6.147-81.412 6.837-124.275 2.658-268.533 38.31-269.975 38.67l.359 1.44c1.442-.358 145.542-35.97 269.648-38.624 32.379-.692 60.605-4.024 81.578-6.85 41.63-5.61 76.272-17.036 109.773-28.087 49.48-16.323 92.212-30.42 141.626-19.395 52.912 11.802 108.846 39.51 158.195 63.958 66.77 33.077 124.436 61.645 159.952 46.41 13.803-5.92 23.363-17.988 29.224-36.896l-1.42-.44c-5.724 18.467-15.01 30.234-28.39 35.972-34.89 14.958-92.267-13.463-158.706-46.378-49.424-24.484-105.444-52.235-158.531-64.077a164.18 164.18 0 00-35.983-3.956" fill="#fff"/></g><g clip-path="url(#ah)" opacity=".467"><path d="M484.898 100.945c-33.959 0-67.238 8.941-103.986 18.814-32.03 8.606-65.15 17.504-104.215 22.4-5.032.63-10.24 1.348-15.755 2.107-19.389 2.672-41.364 5.7-65.659 6.256C72.324 153.336-71.873 199.86-73.315 200.33l.481 1.474c1.44-.468 145.425-46.922 268.152-49.73 24.384-.559 46.406-3.594 65.836-6.272 5.51-.758 10.714-1.476 15.736-2.105 39.171-4.908 73.838-14.222 104.425-22.44 52.87-14.206 98.531-26.47 149.25-12.806 52.181 14.061 105.28 42.745 152.127 68.052 64.126 34.64 119.511 64.556 155.551 49.848 15.502-6.325 26.448-20.405 33.466-43.044l-1.483-.459c-6.87 22.167-17.524 35.928-32.569 42.068-35.363 14.431-90.448-15.325-154.229-49.779-46.922-25.346-100.104-54.075-152.46-68.184-15.734-4.24-30.969-6.008-46.07-6.008" fill="#fff"/></g><g clip-path="url(#ai)" opacity=".5"><path d="M477.321 97.306c-32.825 0-65.986 7.037-102.254 14.732-29.703 6.303-60.417 12.82-95.869 16.93-7.688.892-15.915 2.084-24.625 3.347-16.957 2.459-36.176 5.245-56.825 6.544-121.605 7.65-265.724 60.41-267.166 60.942l.56 1.516c1.44-.532 145.343-53.21 266.707-60.845 20.715-1.304 39.97-4.095 56.956-6.558 8.7-1.26 16.914-2.452 24.58-3.34 35.526-4.12 67.663-10.94 96.017-16.956 57.508-12.203 107.171-22.74 159.931-6.057 51.68 16.34 102.372 46.157 147.095 72.463 61.242 36.02 114.131 67.135 150.211 53.169 17.052-6.6 29.355-22.755 37.611-49.39l-1.543-.478c-8.1 26.13-20.089 41.95-36.65 48.36-35.35 13.676-87.927-17.245-148.809-53.055-44.798-26.348-95.573-56.214-147.429-72.61-19.765-6.25-39.072-8.714-58.498-8.714" fill="#fff"/></g><g clip-path="url(#aj)" opacity=".533"><path d="M466.36 92.662c-31.612 0-64.57 5.335-101.904 11.377-25.907 4.193-52.696 8.53-82.756 11.737-10.32 1.102-21.73 2.906-33.81 4.815-14.368 2.271-30.654 4.845-47.68 6.607-120.257 12.442-264.292 71.48-265.733 72.075l.642 1.553c1.438-.594 145.253-59.54 265.264-71.956 17.071-1.766 33.38-4.344 47.77-6.619 12.057-1.905 23.446-3.706 33.726-4.803 30.105-3.213 56.917-7.553 82.846-11.749 66.753-10.805 119.48-19.339 175.372.97 51.38 18.666 100.015 49.765 142.924 77.203 58.211 37.224 108.483 69.37 144.172 56.315 18.424-6.738 32.03-25.019 41.6-55.888l-1.606-.498c-9.403 30.334-22.674 48.261-40.57 54.808-34.906 12.77-84.856-19.17-142.69-56.153-42.983-27.484-91.7-58.637-143.255-77.368-24.929-9.057-49.197-12.426-74.313-12.426" fill="#fff"/></g><g clip-path="url(#ak)" opacity=".567"><path d="M450.148 87c-32.115 0-66.214 4.097-104.252 8.666-19.583 2.353-39.833 4.785-61.694 6.919-13.015 1.27-27.877 3.897-43.61 6.679-12.1 2.138-24.61 4.35-37.923 6.273-118.92 17.184-262.858 82.551-264.298 83.209l.726 1.588c1.438-.657 145.151-65.922 263.822-83.068 13.34-1.928 25.864-4.142 37.976-6.283 15.7-2.775 30.53-5.396 43.477-6.66 21.88-2.135 42.14-4.57 61.733-6.924 77.12-9.263 138.032-16.582 198.758 8.373 51.255 21.062 98.116 53.591 139.462 82.291 57.368 39.823 102.68 71.274 137.633 59.238 19.587-6.747 34.43-27.194 45.377-62.507l-1.667-.518c-10.77 34.745-25.254 54.822-44.279 61.373-34.116 11.756-81.362-21.046-136.069-59.02-41.418-28.751-88.363-61.338-139.793-82.472C514.441 91.384 483.355 87 450.148 87" fill="#fff"/></g><g clip-path="url(#al)" opacity=".6"><path d="M427.636 79.702c-34.51 0-72.096 3.432-114.87 7.338-8.476.773-17.158 1.566-26.061 2.355-15.885 1.407-34.632 5.18-54.48 9.173-8.725 1.756-17.747 3.571-27.097 5.312C87.523 125.76-56.297 197.5-57.736 198.222l.812 1.62c1.437-.723 145.033-72.349 262.383-94.183 9.364-1.74 18.392-3.559 27.123-5.315 19.798-3.985 38.497-7.747 54.283-9.146 8.904-.788 17.587-1.58 26.067-2.355 97.705-8.922 168.3-15.368 236.694 16.033 51.28 23.542 96.597 57.642 136.578 87.73 54.099 40.71 96.833 72.862 130.766 61.898 20.529-6.634 36.527-29.275 48.908-69.216l-1.728-.536c-12.195 39.337-27.81 61.59-47.737 68.028-33.037 10.681-75.44-21.226-129.12-61.622-40.054-30.14-85.454-64.304-136.911-87.929-38.786-17.806-78.201-23.527-122.746-23.527" fill="#fff"/></g><g clip-path="url(#am)" opacity=".633"><path d="M398.026 70.645c-33.435 0-69.41 2.42-108.818 5.56-19.07 1.517-41.292 6.675-67.023 12.648-4.78 1.11-9.65 2.24-14.603 3.37C91.272 118.757-52.406 196.913-53.844 197.7l.9 1.646c1.435-.787 144.89-78.819 260.943-105.295 4.955-1.13 9.828-2.26 14.61-3.37 25.658-5.957 47.817-11.099 66.748-12.608 108.335-8.63 190.761-11.822 265.031 25.903 51.441 26.127 95.391 61.938 134.168 93.53 50.84 41.424 90.992 74.139 123.7 64.268 21.533-6.503 38.11-30.65 52.164-75.99l-1.79-.555c-13.666 44.078-30.32 68.528-50.917 74.748-31.745 9.583-71.563-22.853-121.972-63.925-38.85-31.653-82.884-67.53-134.503-93.749-47.61-24.182-98.473-31.658-157.212-31.658" fill="#fff"/></g><g clip-path="url(#an)" opacity=".667"><path d="M369.64 59.889c-24.773 0-50.69 1.195-77.928 3.124-22.8 1.614-51.4 9.357-81.675 17.556C94.989 111.717-48.516 196.327-49.953 197.178l.99 1.67c1.434-.85 144.717-85.327 259.506-116.406 30.184-8.173 58.694-15.892 81.306-17.493 105.934-7.502 191.93-3.89 267.302 38.127 51.715 28.828 94.438 66.478 132.133 99.697 47.625 41.968 85.245 75.11 116.545 66.32 22.018-6.187 39.538-32.502 55.133-82.814l-1.853-.575c-15.383 49.625-32.48 75.529-53.804 81.52-30.288 8.508-67.557-24.33-114.738-65.907-37.768-33.283-80.574-71.007-132.471-99.937-56.367-31.422-118.563-41.491-190.455-41.491" fill="#fff"/></g><g clip-path="url(#ao)" opacity=".7"><path d="M347.218 48.096c-16.877 0-34.518.58-53.002 1.727-21.623 1.34-48.31 8.603-81.729 19.093C98.673 104.646-44.628 195.743-46.062 196.659l1.08 1.69c1.431-.914 144.512-91.87 258.07-127.52 33.278-10.446 59.831-17.676 81.252-19.004 117.174-7.267 200.314 8.259 269.571 50.346 52.093 31.657 95.51 73.008 130.396 106.234 44.467 42.349 79.595 75.793 109.39 68.044 22.271-5.796 40.64-34.291 57.808-89.675l-1.916-.594c-16.943 54.657-34.864 82.724-56.398 88.328-28.723 7.473-63.485-25.637-107.5-67.556-34.957-33.292-78.46-74.724-130.739-106.494-58.686-35.664-127.225-52.362-217.734-52.362" fill="#fff"/></g><g clip-path="url(#ap)" opacity=".733"><path d="M334.22 35.602c-12.183 0-24.672.346-37.5 1.03-19.587 1.045-44.811 7.409-81.782 20.635C102.32 97.552-40.74 195.16-42.172 196.142l1.17 1.707c1.43-.98 144.274-98.438 256.637-138.633C252.41 46.06 277.45 39.732 296.83 38.698c111.62-5.953 197.999 13.925 271.842 62.568 52.56 34.624 94.88 78.157 128.887 113.138 43 44.233 74.068 76.2 102.292 69.427 22.61-5.421 41.175-35.203 60.195-96.562l-1.976-.613c-18.527 59.762-37.18 90-58.702 95.162-27.074 6.492-57.8-25.114-100.325-68.858-34.076-35.051-76.484-78.674-129.232-113.422-65.736-43.304-141.317-63.936-235.592-63.936" fill="#fff"/></g><g clip-path="url(#aq)" opacity=".767"><path d="M324.585 22.884c-8.344 0-16.795.187-25.358.558-20.286.936-47.055 8.19-81.842 22.176C105.925 90.43-36.852 194.577-38.28 195.624l1.262 1.723c1.427-1.045 143.992-105.036 255.201-149.748 34.56-13.896 61.102-21.1 81.14-22.025 107.096-4.653 196.76 19.819 274.11 74.787 53.105 37.737 94.38 83.576 127.543 120.409 39.887 44.3 68.701 76.314 95.31 70.465 22.434-4.928 41.65-36.84 62.304-103.47l-2.039-.633c-20.4 65.81-39.128 97.273-60.724 102.018-25.384 5.572-53.859-26.045-93.265-69.81-33.234-36.91-74.596-82.846-127.893-120.72-71.565-50.855-153.588-75.736-250.083-75.736" fill="#fff"/></g><g clip-path="url(#ar)" opacity=".8"><path d="M319.483 9.927c-5.885 0-11.803.108-17.752.323-53.774 1.948-142.332 52.137-207.154 93.897-70.15 45.19-128.387 90.51-128.968 90.963l1.354 1.734c.579-.452 58.75-45.72 128.819-90.857C188.4 46.322 259.644 13.977 301.81 12.449c6.1-.221 12.15-.33 18.087-.33 205.004 0 312.664 129.112 384.61 215.379 36.869 44.205 63.516 76.145 88.473 71.154 22.067-4.412 41.852-38.457 64.15-110.392l-2.101-.652c-22.03 71.07-41.3 104.653-62.48 108.886-23.683 4.726-49.97-26.782-86.352-70.405-37.036-44.408-83.13-99.675-147.87-143.676-35.191-23.918-72.788-42.111-111.745-54.073-39.85-12.236-82.528-18.413-127.1-18.413" fill="#fff"/></g></g></g></svg>